<svg width="21" height="21" viewBox="0 0 21 21" fill="none" xmlns="http://www.w3.org/2000/svg">
<path fill-rule="evenodd" clip-rule="evenodd" d="M10.4102 2.90991C8.33909 2.90991 6.66016 4.58885 6.66016 6.65991C6.66016 8.73097 8.33909 10.4099 10.4102 10.4099C12.4812 10.4099 14.1602 8.73097 14.1602 6.65991C14.1602 4.58885 12.4812 2.90991 10.4102 2.90991ZM10.4102 4.15991C11.7909 4.15991 12.9102 5.2792 12.9102 6.65991C12.9102 8.04062 11.7909 9.15991 10.4102 9.15991C9.02944 9.15991 7.91016 8.04062 7.91016 6.65991C7.91016 5.2792 9.02944 4.15991 10.4102 4.15991ZM6.44939 10.7054C5.07336 11.2878 4.16016 12.6398 4.16016 14.1599V15.4099C4.16016 16.7907 5.27944 17.9099 6.66016 17.9099H14.1602C15.5409 17.9099 16.6602 16.7907 16.6602 15.4099V14.1599C16.6602 12.6395 15.7467 11.2874 14.37 10.7055C13.9822 10.5415 13.5378 10.5838 13.1878 10.8182C12.3722 11.3643 11.4148 11.6599 10.4102 11.6599C9.40547 11.6599 8.44806 11.3643 7.63206 10.8179C7.28198 10.5835 6.83738 10.5412 6.44939 10.7054ZM6.93657 11.8566C7.93029 12.522 9.12492 12.9099 10.4102 12.9099C11.6954 12.9099 12.89 12.522 13.8833 11.8568C14.7808 12.2362 15.4102 13.1245 15.4102 14.1599V15.4099C15.4102 16.1003 14.8505 16.6599 14.1602 16.6599H6.66016C5.96981 16.6599 5.41016 16.1003 5.41016 15.4099V14.1599C5.41016 13.1245 6.03953 12.2362 6.93657 11.8566Z" fill="black"/>
</svg>
