<svg width="20" height="20" viewBox="0 0 20 20" fill="none" xmlns="http://www.w3.org/2000/svg">
<path fill-rule="evenodd" clip-rule="evenodd" d="M13.3656 2.5H6.63437C6.0772 2.5 5.625 2.95215 5.625 3.50961V3.75H3.75L3.65672 3.75342C3.01005 3.80115 2.5 4.34106 2.5 5V5.80737L2.50285 5.9766C2.57146 8.00809 3.87066 9.79561 5.77054 10.4983C6.21451 12.1744 7.6283 13.4559 9.375 13.7057V16.25H6.875C6.52983 16.25 6.25 16.5299 6.25 16.875C6.25 17.2201 6.52983 17.5 6.875 17.5H9.375H10.625H13.125C13.4701 17.5 13.75 17.2201 13.75 16.875C13.75 16.5299 13.4701 16.25 13.125 16.25H10.625V13.7046C12.3785 13.451 13.7863 12.1687 14.2292 10.4984C16.1819 9.7763 17.5 7.90837 17.5 5.80737V5L17.4966 4.90671C17.4489 4.25996 16.9089 3.75 16.25 3.75H14.375V3.50961C14.375 2.95215 13.9228 2.5 13.3656 2.5ZM5.625 9.05351V5H3.75V5.80737C3.75 7.16426 4.48449 8.39281 5.625 9.05351ZM16.2469 5.96187C16.1935 7.25705 15.472 8.41799 14.375 9.05351V5H16.25V5.80737L16.2469 5.96187ZM6.875 3.75H13.125V9.375C13.125 11.0572 11.7932 12.4361 10.1176 12.4978L9.9885 12.5001L9.85383 12.4972C8.20134 12.4261 6.875 11.0555 6.875 9.375V3.75Z" fill="black"/>
</svg>
