<svg width="24" height="25" viewBox="0 0 24 25" fill="none" xmlns="http://www.w3.org/2000/svg">
<path d="M14.7 6.79998C14.5168 6.98691 14.4141 7.23823 14.4141 7.49998C14.4141 7.76173 14.5168 8.01305 14.7 8.19998L16.3 9.79998C16.4869 9.98321 16.7382 10.0858 17 10.0858C17.2617 10.0858 17.513 9.98321 17.7 9.79998L21.47 6.02998C21.9728 7.14117 22.1251 8.37921 21.9064 9.57913C21.6878 10.779 21.1087 11.8838 20.2463 12.7463C19.3838 13.6087 18.279 14.1878 17.0791 14.4064C15.8792 14.6251 14.6412 14.4728 13.53 13.97L6.61998 20.88C6.22215 21.2778 5.68259 21.5013 5.11998 21.5013C4.55737 21.5013 4.0178 21.2778 3.61998 20.88C3.22215 20.4822 2.99866 19.9426 2.99866 19.38C2.99866 18.8174 3.22215 18.2778 3.61998 17.88L10.53 10.97C10.0271 9.85879 9.87489 8.62075 10.0935 7.42083C10.3121 6.22092 10.8913 5.11614 11.7537 4.2537C12.6161 3.39127 13.7209 2.81215 14.9208 2.59352C16.1207 2.3749 17.3588 2.52714 18.47 3.02998L14.71 6.78998L14.7 6.79998Z" stroke="#053CD5" stroke-width="2" stroke-linecap="round" stroke-linejoin="round"/>
</svg>
